<?xml version="1.0" encoding="UTF-8"?>
<svg width="16px" height="16px" viewBox="0 0 16 16" version="1.1" xmlns="http://www.w3.org/2000/svg" xmlns:xlink="http://www.w3.org/1999/xlink">
    <!-- Generator: Sketch 41.2 (35397) - http://www.bohemiancoding.com/sketch -->
    <title>buffer</title>
    <desc>Created with Sketch.</desc>
    <defs></defs>
    <g id="Welcome" stroke="none" stroke-width="1" fill="none" fill-rule="evenodd">
        <g id="Modelling---proximity" transform="translate(-32.000000, -591.000000)" fill="#4A4A4A">
            <g id="buffer" transform="translate(32.000000, 591.000000)">
                <g id="Group">
                    <polygon id="Shape" points="0 0 1 0 1 1 0 1"></polygon>
                    <polygon id="Shape" points="2 0 3 0 3 1 2 1"></polygon>
                    <polygon id="Shape" points="1 1 2 1 2 2 1 2"></polygon>
                    <polygon id="Shape" points="0 2 1 2 1 3 0 3"></polygon>
                    <polygon id="Shape" points="2 2 3 2 3 3 2 3"></polygon>
                    <polygon id="Shape" points="1 3 2 3 2 4 1 4"></polygon>
                    <polygon id="Shape" points="0 4 1 4 1 5 0 5"></polygon>
                    <polygon id="Shape" points="1 5 2 5 2 6 1 6"></polygon>
                    <polygon id="Shape" points="0 6 1 6 1 7 0 7"></polygon>
                    <polygon id="Shape" points="1 7 2 7 2 8 1 8"></polygon>
                    <polygon id="Shape" points="0 8 1 8 1 9 0 9"></polygon>
                    <polygon id="Shape" points="1 9 2 9 2 10 1 10"></polygon>
                    <polygon id="Shape" points="0 10 1 10 1 11 0 11"></polygon>
                    <polygon id="Shape" points="1 11 2 11 2 12 1 12"></polygon>
                    <polygon id="Shape" points="0 12 1 12 1 13 0 13"></polygon>
                    <polygon id="Shape" points="1 13 2 13 2 14 1 14"></polygon>
                    <polygon id="Shape" points="0 14 1 14 1 15 0 15"></polygon>
                    <polygon id="Shape" points="2 14 3 14 3 15 2 15"></polygon>
                    <polygon id="Shape" points="1 15 2 15 2 16 1 16"></polygon>
                    <polygon id="Shape" points="3 15 4 15 4 16 3 16"></polygon>
                    <polygon id="Shape" points="5 15 6 15 6 16 5 16"></polygon>
                    <polygon id="Shape" points="4 0 5 0 5 1 4 1"></polygon>
                    <polygon id="Shape" points="3 1 4 1 4 2 3 2"></polygon>
                    <polygon id="Shape" points="5 1 6 1 6 2 5 2"></polygon>
                    <polygon id="Shape" points="4 14 5 14 5 15 4 15"></polygon>
                    <polygon id="Shape" points="6 0 7 0 7 1 6 1"></polygon>
                    <polygon id="Shape" points="8 0 9 0 9 1 8 1"></polygon>
                    <polygon id="Shape" points="7 1 8 1 8 2 7 2"></polygon>
                    <polygon id="Shape" points="6 14 7 14 7 15 6 15"></polygon>
                    <polygon id="Shape" points="8 14 9 14 9 15 8 15"></polygon>
                    <polygon id="Shape" points="7 15 8 15 8 16 7 16"></polygon>
                    <polygon id="Shape" points="9 15 10 15 10 16 9 16"></polygon>
                    <polygon id="Shape" points="11 15 12 15 12 16 11 16"></polygon>
                    <polygon id="Shape" points="10 0 11 0 11 1 10 1"></polygon>
                    <polygon id="Shape" points="9 1 10 1 10 2 9 2"></polygon>
                    <polygon id="Shape" points="11 1 12 1 12 2 11 2"></polygon>
                    <polygon id="Shape" points="10 14 11 14 11 15 10 15"></polygon>
                    <polygon id="Shape" points="12 0 13 0 13 1 12 1"></polygon>
                    <polygon id="Shape" points="14 0 15 0 15 1 14 1"></polygon>
                    <polygon id="Shape" points="13 1 14 1 14 2 13 2"></polygon>
                    <polygon id="Shape" points="13 2 12 2 12 3 11 3 11 2 10 2 10 3 9 3 9 2 8 2 8 3 7 3 7 2 6 2 6 3 5 3 5 2 4 2 4 3 3 3 3 4 2 4 2 5 3 5 3 6 2 6 2 7 3 7 3 8 2 8 2 9 3 9 3 10 2 10 2 11 3 11 3 12 2 12 2 13 3 13 3 14 4 14 4 13 5 13 5 14 6 14 6 13 7 13 7 14 8 14 8 13 9 13 9 14 10 14 10 13 11 13 11 14 12 14 12 13 13 13 13 12 14 12 14 11 13 11 13 10 14 10 14 9 13 9 13 8 14 8 14 7 13 7 13 6 14 6 14 5 13 5 13 4 14 4 14 3 13 3"></polygon>
                    <polygon id="Shape" points="14 2 15 2 15 3 14 3"></polygon>
                    <polygon id="Shape" points="14 4 15 4 15 5 14 5"></polygon>
                    <polygon id="Shape" points="14 6 15 6 15 7 14 7"></polygon>
                    <polygon id="Shape" points="14 8 15 8 15 9 14 9"></polygon>
                    <polygon id="Shape" points="14 10 15 10 15 11 14 11"></polygon>
                    <polygon id="Shape" points="14 12 15 12 15 13 14 13"></polygon>
                    <polygon id="Shape" points="13 13 14 13 14 14 13 14"></polygon>
                    <polygon id="Shape" points="12 14 13 14 13 15 12 15"></polygon>
                    <polygon id="Shape" points="14 14 15 14 15 15 14 15"></polygon>
                    <polygon id="Shape" points="13 15 14 15 14 16 13 16"></polygon>
                    <polygon id="Shape" points="15 15 16 15 16 16 15 16"></polygon>
                    <polygon id="Shape" points="15 1 16 1 16 2 15 2"></polygon>
                    <polygon id="Shape" points="15 3 16 3 16 4 15 4"></polygon>
                    <polygon id="Shape" points="15 5 16 5 16 6 15 6"></polygon>
                    <polygon id="Shape" points="15 7 16 7 16 8 15 8"></polygon>
                    <polygon id="Shape" points="15 9 16 9 16 10 15 10"></polygon>
                    <polygon id="Shape" points="15 11 16 11 16 12 15 12"></polygon>
                    <polygon id="Shape" points="15 13 16 13 16 14 15 14"></polygon>
                </g>
            </g>
        </g>
    </g>
</svg>