<?xml version="1.0" encoding="UTF-8"?>
<svg width="16px" height="16px" viewBox="0 0 16 16" version="1.1" xmlns="http://www.w3.org/2000/svg" xmlns:xlink="http://www.w3.org/1999/xlink">
    <!-- Generator: Sketch 41.2 (35397) - http://www.bohemiancoding.com/sketch -->
    <title>near</title>
    <desc>Created with Sketch.</desc>
    <defs></defs>
    <g id="Welcome" stroke="none" stroke-width="1" fill="none" fill-rule="evenodd">
        <g id="Modelling---proximity" transform="translate(-32.000000, -641.000000)" fill="#4A4A4A">
            <g id="near" transform="translate(32.000000, 641.000000)">
                <g id="Layer_1">
                    <path d="M7.98938645,0 C3.56972112,0 0,3.56972112 0,7.98938645 C0,12.4090518 3.56972112,15.9787729 7.98938645,15.9787729 C12.4090518,15.9787729 15.9787729,12.4090518 15.9787729,7.98938645 C15.9787729,3.56972112 12.4090199,0 7.98938645,0 Z M11.7290837,4.28366534 C11.5250996,4.07968127 11.2191235,4.01166534 10.9471554,4.14766534 L6.59550598,6.28949801 C6.45950598,6.35748207 6.35751394,6.4594741 6.28952988,6.5954741 L4.14769721,10.9131474 C4.04570518,11.1851155 4.07971315,11.4910916 4.28369721,11.6950757 C4.41969721,11.8310757 4.58967331,11.8990598 4.7596494,11.8990598 C4.82763347,11.8990598 4.9296255,11.8650518 5.03161753,11.8310757 L9.38326693,9.68924303 C9.51926693,9.62125896 9.62125896,9.51926693 9.68924303,9.38326693 L11.8650837,5.06559363 C11.9670757,4.7936255 11.9330677,4.4876494 11.7290837,4.28366534 Z" id="Combined-Shape"></path>
                </g>
            </g>
        </g>
    </g>
</svg>