<?xml version="1.0" encoding="UTF-8"?>
<svg width="12px" height="18px" viewBox="0 0 12 18" version="1.1" xmlns="http://www.w3.org/2000/svg" xmlns:xlink="http://www.w3.org/1999/xlink">
    <!-- Generator: Sketch 41.2 (35397) - http://www.bohemiancoding.com/sketch -->
    <title>split</title>
    <desc>Created with Sketch.</desc>
    <defs></defs>
    <g id="Welcome" stroke="none" stroke-width="1" fill="none" fill-rule="evenodd">
        <g id="Modelling" transform="translate(-34.000000, -640.000000)" fill="#4A4A4A">
            <path d="M36.6513397,651.811833 C36.7868134,651.947306 36.9905407,651.987828 37.1675694,651.914536 C37.344555,651.841201 37.4599617,651.668478 37.4599617,651.476938 L37.4599617,646.523105 C37.4599617,646.331522 37.344555,646.158799 37.1675694,646.085464 C37.1089617,646.06122 37.0474258,646.049421 36.9863636,646.049421 C36.8631196,646.049421 36.7419426,646.097522 36.6513397,646.188167 L34.174445,648.665062 C34.0856077,648.7539 34.0356555,648.874388 34.0356555,649 C34.0356555,649.125612 34.0856077,649.246144 34.174445,649.334895 L36.6513397,651.811833 Z M42.6315598,651.914536 C42.8084163,651.987742 43.0122297,651.947478 43.1477033,651.811833 L45.6246842,649.334895 C45.7134785,649.246057 45.7633876,649.125612 45.7633876,649 C45.7633876,648.874388 45.7135646,648.753856 45.6246842,648.665062 L43.1477033,646.188167 C43.0571005,646.097565 42.9359234,646.049421 42.8127225,646.049421 C42.7517464,646.049421 42.6900813,646.061177 42.6315598,646.085464 C42.4545311,646.158799 42.3391244,646.331522 42.3391244,646.523105 L42.3391244,651.476852 C42.3391244,651.668478 42.4545311,651.841201 42.6315598,651.914536 Z M40.0287081,640 L39.7703349,640 C39.5087321,640 39.2966507,640.212081 39.2966507,640.473684 L39.2966507,641.980861 C39.2966507,642.242464 39.5087321,642.454545 39.7703349,642.454545 L40.0287081,642.454545 C40.290311,642.454545 40.5023923,642.242464 40.5023923,641.980861 L40.5023923,640.473684 C40.5023923,640.212081 40.2903541,640 40.0287081,640 Z M40.0287081,644.106067 L39.7703349,644.106067 C39.5087321,644.106067 39.2966507,644.318148 39.2966507,644.579751 L39.2966507,647.700598 C39.2966507,647.962201 39.5087321,648.174282 39.7703349,648.174282 L40.0287081,648.174282 C40.290311,648.174282 40.5023923,647.962201 40.5023923,647.700598 L40.5023923,644.579751 C40.5023923,644.318105 40.2903541,644.106067 40.0287081,644.106067 Z M40.0287081,649.825761 L39.7703349,649.825761 C39.5087321,649.825761 39.2966507,650.037885 39.2966507,650.299445 L39.2966507,653.420335 C39.2966507,653.681938 39.5087321,653.894019 39.7703349,653.894019 L40.0287081,653.894019 C40.290311,653.894019 40.5023923,653.681938 40.5023923,653.420335 L40.5023923,650.299445 C40.5023923,650.037885 40.2903541,649.825761 40.0287081,649.825761 Z M40.0287081,655.545455 L39.7703349,655.545455 C39.5087321,655.545455 39.2966507,655.757536 39.2966507,656.019139 L39.2966507,657.526316 C39.2966507,657.787919 39.5087321,658 39.7703349,658 L40.0287081,658 C40.290311,658 40.5023923,657.787919 40.5023923,657.526316 L40.5023923,656.019139 C40.5023923,655.757536 40.2903541,655.545455 40.0287081,655.545455 Z" id="split"></path>
        </g>
    </g>
</svg>