<?xml version="1.0" encoding="iso-8859-1"?>
<!-- Generator: Adobe Illustrator 19.0.0, SVG Export Plug-In . SVG Version: 6.00 Build 0)  -->
<svg version="1.1" id="Layer_1" xmlns="http://www.w3.org/2000/svg" xmlns:xlink="http://www.w3.org/1999/xlink" x="0px" y="0px"
	 viewBox="0 0 512.427 512.427" style="enable-background:new 0 0 512.427 512.427;" xml:space="preserve">
<g transform="translate(0 1)">
	<g>
		<g>
			<path d="M452.907-0.573H341.12c-25.6,0-46.08,20.48-46.08,46.08v22.187H192.97c-9.82-22.491-21.623-44.183-35.317-64.853
				c-3.413-5.12-11.093-5.12-14.507,0c-46.08,68.267-69.973,148.48-69.973,230.4v11.947l-56.32,112.64
				c-3.413,7.68-3.413,17.067,0,24.747c3.413,7.68,10.24,13.653,18.773,15.36l37.547,9.387v1.707c0,5.12,3.413,8.533,8.533,8.533
				h17.178c-1.9,12.981,1.274,26.5,8.422,37.547l35.84,52.907c1.707,1.707,4.267,3.413,6.827,3.413s5.12-1.707,5.973-3.413
				l34.987-52.907c7.775-11.663,10.618-24.8,8.554-37.547h18.753c5.12,0,8.533-3.413,9.387-8.533v-1.991l38.4-9.956
				c7.68-2.56,14.507-7.68,17.92-15.36c4.267-7.68,3.413-16.213,0-23.893l-56.32-111.812V233.24
				c0-39.151-5.544-77.536-16.165-114.347h83.579v46.933c0,11.947,9.387,21.333,21.333,21.333c2.56,0,4.267,1.707,4.267,4.267
				v311.467c0,5.12,3.413,8.533,8.533,8.533h42.667h51.2h42.667c5.12,0,8.533-3.413,7.68-8.533V191.427
				c0-2.56,1.707-4.267,4.267-4.267c11.947,0,21.333-9.387,21.333-21.333V45.507C498.987,19.907,478.507-0.573,452.907-0.573z
				 M39.893,380.867c-3.413-0.853-5.973-2.56-7.68-5.973c-1.707-3.413-1.707-6.827,0-10.24l40.96-81.92v106.453L39.893,380.867z
				 M178.133,445.72l-28.16,41.813l-28.16-41.813c-5.973-8.533-7.68-18.773-5.12-28.16h66.56
				C185.813,426.947,184.107,437.187,178.133,445.72z M188.373,400.493h-78.507H90.24v-17.067h34.133
				c5.12,0,8.533-3.413,8.533-8.533s-3.413-8.533-8.533-8.533H90.24v-17.067h17.067c5.12,0,8.533-3.413,8.533-8.533
				c0-5.12-3.413-8.533-8.533-8.533H90.24V315.16h34.133c5.12,0,8.533-3.413,8.533-8.533s-3.413-8.533-8.533-8.533H90.24v-17.067
				h17.067c5.12,0,8.533-3.413,8.533-8.533c0-5.12-3.413-8.533-8.533-8.533H90.24v-17.067V233.24
				c0-74.24,20.48-146.773,59.733-209.92c11.203,18.023,20.871,36.812,28.976,56.185c0.014,0.044,0.023,0.091,0.038,0.135
				c4.267,10.24,8.533,22.187,11.947,33.28c0.17,0.339,0.36,0.667,0.562,0.987c12.038,38.421,18.211,78.618,18.211,119.333v13.653
				v17.067H192.64c-5.12,0-8.533,3.413-8.533,8.533c0,5.12,3.413,8.533,8.533,8.533h17.067v17.067h-34.133
				c-5.12,0-8.533,3.413-8.533,8.533s3.413,8.533,8.533,8.533h34.133v17.067H192.64c-5.12,0-8.533,3.413-8.533,8.533
				c0,5.12,3.413,8.533,8.533,8.533h17.067v17.067h-34.133c-5.12,0-8.533,3.413-8.533,8.533s3.413,8.533,8.533,8.533h34.133v17.067
				H188.373z M268.587,365.507c1.707,3.413,1.707,6.827,0,9.387c-0.853,3.413-3.413,5.12-6.827,5.973l-34.133,8.325V284.423
				L268.587,365.507z M206.126,101.827c-1.925-5.731-3.966-11.423-6.139-17.067h95.053v17.067H206.126z M414.507,298.093v25.6
				h-34.133v-25.6H414.507z M380.373,281.027v-25.6h34.133v25.6H380.373z M414.507,340.76v25.6h-34.133v-25.6H414.507z
				 M414.507,383.427v25.6h-34.133v-25.6H414.507z M414.507,238.36h-34.133v-25.6h34.133V238.36z M380.373,426.093h34.133v25.6
				h-34.133V426.093z M423.04,153.027h-51.2V84.76c0-14.507,11.093-25.6,25.6-25.6c14.507,0,25.6,11.093,25.6,25.6V153.027z
				 M414.507,170.093v25.6h-34.133v-25.6H414.507z M380.373,494.36v-25.6h34.133v25.6H380.373z M482.773,165.827
				c0,2.56-1.707,4.267-4.267,4.267c-11.947,0-21.333,9.387-21.333,21.333V494.36h-25.6V170.093c5.12,0,8.533-3.413,8.533-8.533
				v-76.8c0-23.893-18.773-42.667-42.667-42.667c-23.893,0-42.667,18.773-42.667,42.667v76.8c0,5.12,3.413,8.533,8.533,8.533V494.36
				h-25.6V191.427c0-11.947-9.387-21.333-21.333-21.333c-2.56,0-4.267-1.707-4.267-4.267V110.36V76.227v-30.72
				c0-16.213,12.8-29.013,29.013-29.013h112.64c16.213,0,29.013,12.8,29.013,29.013V165.827z"/>
			<path d="M192.64,185.453v-4.267c0-14.507-11.947-27.307-27.307-27.307h-29.867c-14.507,0-27.307,11.947-27.307,27.307v4.267
				c0,14.507,11.947,27.307,27.307,27.307h29.867C179.84,212.76,192.64,199.96,192.64,185.453z M174.72,184.6
				c0,5.12-4.267,10.24-10.24,10.24h-29.867c-5.12,0-10.24-4.267-10.24-10.24v-4.267c0-5.12,4.267-10.24,10.24-10.24h29.867
				c5.12,0,10.24,4.267,10.24,10.24V184.6z"/>
			<path d="M56.107,485.827c-5.12,0-8.533,3.413-8.533,8.533s3.413,8.533,8.533,8.533s8.533-3.413,8.533-8.533
				S61.227,485.827,56.107,485.827z"/>
			<path d="M21.973,451.693c-5.12,0-8.533,3.413-8.533,8.533c0,5.12,3.413,8.533,8.533,8.533s8.533-3.413,8.533-8.533
				C30.507,455.107,27.093,451.693,21.973,451.693z"/>
			<path d="M73.173,451.693c-5.12,0-8.533,3.413-8.533,8.533c0,5.12,3.413,8.533,8.533,8.533s8.533-3.413,8.533-8.533
				C81.707,455.107,78.293,451.693,73.173,451.693z"/>
			<path d="M243.84,485.827c-5.12,0-8.533,3.413-8.533,8.533s3.413,8.533,8.533,8.533s8.533-3.413,8.533-8.533
				S248.96,485.827,243.84,485.827z"/>
			<path d="M277.973,451.693c-5.12,0-8.533,3.413-8.533,8.533c0,5.12,3.413,8.533,8.533,8.533s8.533-3.413,8.533-8.533
				C286.507,455.107,283.093,451.693,277.973,451.693z"/>
			<path d="M226.773,451.693c-5.12,0-8.533,3.413-8.533,8.533c0,5.12,3.413,8.533,8.533,8.533c5.12,0,8.533-3.413,8.533-8.533
				C235.307,455.107,231.893,451.693,226.773,451.693z"/>
		</g>
	</g>
</g>
<g>
</g>
<g>
</g>
<g>
</g>
<g>
</g>
<g>
</g>
<g>
</g>
<g>
</g>
<g>
</g>
<g>
</g>
<g>
</g>
<g>
</g>
<g>
</g>
<g>
</g>
<g>
</g>
<g>
</g>
</svg>
