<?xml version="1.0" encoding="UTF-8"?>
<svg width="23px" height="14px" viewBox="0 0 23 14" version="1.1" xmlns="http://www.w3.org/2000/svg" xmlns:xlink="http://www.w3.org/1999/xlink">
    <!-- Generator: Sketch 41.2 (35397) - http://www.bohemiancoding.com/sketch -->
    <title>arrow</title>
    <desc>Created with Sketch.</desc>
    <defs></defs>
    <g id="Welcome" stroke="none" stroke-width="1" fill="none" fill-rule="evenodd">
        <g id="Modelling" transform="translate(-561.000000, -547.000000)" fill="#C4C4C4">
            <g id="Group-4" transform="translate(387.000000, 516.000000)">
                <g id="arrows" transform="translate(174.000000, 31.000000)">
                    <g id="Capa_1">
                        <path d="M22.6595914,6.18869213 L16.9202922,0.341285393 C16.6971306,0.113730337 16.4295653,0 16.1180594,0 C15.8123587,0 15.5479121,0.113730337 15.3245653,0.341285393 L14.6634181,1.01492135 C14.4400404,1.23052135 14.3283824,1.49998202 14.3283824,1.82336629 C14.3283824,2.14668764 14.4400404,2.41614831 14.6634181,2.63181124 L17.2465273,5.27252584 L1.03990736,5.27252584 C0.734361045,5.27252584 0.486033254,5.38477753 0.295016627,5.60937528 C0.104,5.83397303 0.00849168646,6.10494382 0.00849168646,6.42222472 L0.00849168646,7.57198652 C0.00849168646,7.8893618 0.104030879,8.1602382 0.295016627,8.38483596 C0.486002375,8.60943371 0.734361045,8.72159101 1.03990736,8.72159101 L17.2464038,8.72159101 L14.6633254,11.3535281 C14.4399477,11.5809258 14.3282898,11.8534382 14.3282898,12.1709079 C14.3282898,12.4883146 14.4399477,12.7607955 14.6633254,12.9881933 L15.3244727,13.6618292 C15.5537791,13.8834067 15.8182257,13.9941798 16.1179667,13.9941798 C16.4236366,13.9941798 16.6911401,13.8834067 16.9202304,13.6618292 L22.6594988,7.81442247 C22.8769786,7.59284494 22.9857957,7.32045843 22.9857957,6.9970427 C22.9857957,6.66774382 22.8769786,6.3981573 22.6595914,6.18869213 Z" id="arrow"></path>
                    </g>
                </g>
            </g>
        </g>
    </g>
</svg>