<?xml version="1.0" encoding="UTF-8"?>
<svg width="16px" height="17px" viewBox="0 0 16 17" version="1.1" xmlns="http://www.w3.org/2000/svg" xmlns:xlink="http://www.w3.org/1999/xlink">
    <!-- Generator: Sketch 41.2 (35397) - http://www.bohemiancoding.com/sketch -->
    <title>clip</title>
    <desc>Created with Sketch.</desc>
    <defs></defs>
    <g id="Welcome" stroke="none" stroke-width="1" fill="none" fill-rule="evenodd">
        <g id="Modelling" transform="translate(-32.000000, -590.000000)" fill="#4A4A4A">
            <path d="M46.8866353,591.114824 L32.4193412,598.264565 C32.1625412,598.391435 32,598.653082 32,598.939529 C32,599.225976 32.1625412,599.487624 32.4193412,599.614541 L46.8866353,606.764329 C46.9920471,606.816376 47.1062588,606.842212 47.2201882,606.842212 C47.3584471,606.842212 47.4963294,606.804141 47.6175529,606.728894 C47.8386824,606.591482 47.9731765,606.3496 47.9731765,606.089271 L47.9731765,591.789788 C47.9731765,591.529506 47.8387765,591.287576 47.6175529,591.150212 C47.3963294,591.012847 47.12,590.999341 46.8866353,591.114824 Z M45.8780706,598.939529 L45.8780706,603.928753 L35.5194824,598.939529 L45.8780706,598.939529 Z" id="clip" transform="translate(39.986588, 598.939513) rotate(-270.000000) translate(-39.986588, -598.939513) "></path>
        </g>
    </g>
</svg>