<?xml version="1.0" encoding="UTF-8"?>
<svg width="13px" height="18px" viewBox="0 0 13 18" version="1.1" xmlns="http://www.w3.org/2000/svg" xmlns:xlink="http://www.w3.org/1999/xlink">
    <!-- Generator: Sketch 41.2 (35397) - http://www.bohemiancoding.com/sketch -->
    <title>location-select</title>
    <desc>Created with Sketch.</desc>
    <defs></defs>
    <g id="Welcome" stroke="none" stroke-width="1" fill="none" fill-rule="evenodd">
        <g id="Modelling" transform="translate(-34.000000, -540.000000)" fill="#4A4A4A">
            <path d="M40.4913043,540 L40.4913043,540 C36.9,540 34,542.9 34,546.491304 C34,547.743478 34.4,548.93913 34.9565217,549.921696 L39.1869565,557.243391 C39.4521739,557.721652 39.9869565,557.960783 40.4913043,557.960783 C40.9956957,557.960783 41.5043478,557.721652 41.7956522,557.243391 L46.026087,549.926043 C46.5869565,548.943391 46.9826087,547.769478 46.9826087,546.495565 C46.9826087,542.904348 44.0826087,540 40.4913043,540 Z M40.4913043,548.408696 C39.1869565,548.408696 38.1217391,547.343478 38.1217391,546.03913 C38.1217391,544.734783 39.1869565,543.669565 40.4913043,543.669565 C41.7956522,543.669565 42.8608696,544.734783 42.8608696,546.03913 C42.8608696,547.347826 41.7956522,548.408696 40.4913043,548.408696 Z" id="location-select"></path>
        </g>
    </g>
</svg>