<?xml version="1.0" encoding="UTF-8"?>
<svg width="16px" height="16px" viewBox="0 0 16 16" version="1.1" xmlns="http://www.w3.org/2000/svg" xmlns:xlink="http://www.w3.org/1999/xlink">
    <!-- Generator: Sketch 41.2 (35397) - http://www.bohemiancoding.com/sketch -->
    <title>select</title>
    <desc>Created with Sketch.</desc>
    <defs></defs>
    <g id="Welcome" stroke="none" stroke-width="1" fill="none" fill-rule="evenodd">
        <g id="Modelling" transform="translate(-32.000000, -491.000000)" fill="#4A4A4A">
            <path d="M47.7455911,503.957446 L42.2487803,498.460744 L46.2517533,496.733771 C46.5622938,496.599771 46.7570506,496.287014 46.7402938,495.949176 C46.723429,495.611338 46.4987803,495.319392 46.176456,495.21669 L33.0569425,491.038203 C32.7679695,490.946311 32.4519154,491.023068 32.2375911,491.2375 C32.0231587,491.451879 31.9462398,491.767933 32.0382398,492.056852 L36.2167803,505.176473 C36.3193749,505.498798 36.611429,505.7235 36.9492668,505.740365 C37.2871046,505.757176 37.5998073,505.562311 37.7338073,505.251771 L39.4607803,501.248852 L44.9575371,506.745608 C45.1095911,506.897662 45.3157533,506.983122 45.5307263,506.983122 C45.7458073,506.983122 45.9521317,506.897717 46.1040235,506.745608 L47.745483,505.104095 C48.0622398,504.787446 48.0622398,504.274095 47.7455911,503.957446 Z" id="select"></path>
        </g>
    </g>
</svg>